<mxfile host="app.diagrams.net" modified="2022-04-24T06:56:19.847Z" agent="5.0 (Macintosh; Intel Mac OS X 10_15_7) AppleWebKit/537.36 (KHTML, like Gecko) Chrome/100.0.4896.127 Safari/537.36" etag="uhg1YWLTHy6JP4osTSDl" version="17.4.6" type="github">
  <diagram id="C5RBs43oDa-KdzZeNtuy" name="Page-1">
    <mxGraphModel dx="2324" dy="877" grid="1" gridSize="10" guides="1" tooltips="1" connect="1" arrows="1" fold="1" page="1" pageScale="1" pageWidth="827" pageHeight="1169" math="0" shadow="0">
      <root>
        <mxCell id="WIyWlLk6GJQsqaUBKTNV-0" />
        <mxCell id="WIyWlLk6GJQsqaUBKTNV-1" parent="WIyWlLk6GJQsqaUBKTNV-0" />
        <mxCell id="zkfFHV4jXpPFQw0GAbJ--0" value="LinkClient" style="swimlane;fontStyle=2;align=center;verticalAlign=top;childLayout=stackLayout;horizontal=1;startSize=26;horizontalStack=0;resizeParent=1;resizeLast=0;collapsible=1;marginBottom=0;rounded=0;shadow=0;strokeWidth=1;" parent="WIyWlLk6GJQsqaUBKTNV-1" vertex="1">
          <mxGeometry x="400" y="80" width="610" height="190" as="geometry">
            <mxRectangle x="230" y="140" width="160" height="26" as="alternateBounds" />
          </mxGeometry>
        </mxCell>
        <mxCell id="zkfFHV4jXpPFQw0GAbJ--1" value="sessions" style="text;align=left;verticalAlign=top;spacingLeft=4;spacingRight=4;overflow=hidden;rotatable=0;points=[[0,0.5],[1,0.5]];portConstraint=eastwest;" parent="zkfFHV4jXpPFQw0GAbJ--0" vertex="1">
          <mxGeometry y="26" width="610" height="26" as="geometry" />
        </mxCell>
        <mxCell id="zkfFHV4jXpPFQw0GAbJ--4" value="" style="line;html=1;strokeWidth=1;align=left;verticalAlign=middle;spacingTop=-1;spacingLeft=3;spacingRight=3;rotatable=0;labelPosition=right;points=[];portConstraint=eastwest;" parent="zkfFHV4jXpPFQw0GAbJ--0" vertex="1">
          <mxGeometry y="52" width="610" height="8" as="geometry" />
        </mxCell>
        <mxCell id="zkfFHV4jXpPFQw0GAbJ--2" value="setCustomLogger:(id&lt;LoggerProtocol&gt;)logger;" style="text;align=left;verticalAlign=top;spacingLeft=4;spacingRight=4;overflow=hidden;rotatable=0;points=[[0,0.5],[1,0.5]];portConstraint=eastwest;rounded=0;shadow=0;html=0;" parent="zkfFHV4jXpPFQw0GAbJ--0" vertex="1">
          <mxGeometry y="60" width="610" height="26" as="geometry" />
        </mxCell>
        <mxCell id="zkfFHV4jXpPFQw0GAbJ--3" value="createNewSessionWithHost:(NSString *)host port:(NSInteger)port config:(SessionConfig *)config;" style="text;align=left;verticalAlign=top;spacingLeft=4;spacingRight=4;overflow=hidden;rotatable=0;points=[[0,0.5],[1,0.5]];portConstraint=eastwest;rounded=0;shadow=0;html=0;" parent="zkfFHV4jXpPFQw0GAbJ--0" vertex="1">
          <mxGeometry y="86" width="610" height="26" as="geometry" />
        </mxCell>
        <mxCell id="zkfFHV4jXpPFQw0GAbJ--5" value="openSession:(Session *)session;" style="text;align=left;verticalAlign=top;spacingLeft=4;spacingRight=4;overflow=hidden;rotatable=0;points=[[0,0.5],[1,0.5]];portConstraint=eastwest;" parent="zkfFHV4jXpPFQw0GAbJ--0" vertex="1">
          <mxGeometry y="112" width="610" height="26" as="geometry" />
        </mxCell>
        <mxCell id="T8p9k_Qt9hQ4uy_2N834-2" value="closeAllSessions;" style="text;align=left;verticalAlign=top;spacingLeft=4;spacingRight=4;overflow=hidden;rotatable=0;points=[[0,0.5],[1,0.5]];portConstraint=eastwest;" parent="zkfFHV4jXpPFQw0GAbJ--0" vertex="1">
          <mxGeometry y="138" width="610" height="26" as="geometry" />
        </mxCell>
        <mxCell id="T8p9k_Qt9hQ4uy_2N834-3" value="reconnectAllSessions;" style="text;align=left;verticalAlign=top;spacingLeft=4;spacingRight=4;overflow=hidden;rotatable=0;points=[[0,0.5],[1,0.5]];portConstraint=eastwest;" parent="zkfFHV4jXpPFQw0GAbJ--0" vertex="1">
          <mxGeometry y="164" width="610" height="26" as="geometry" />
        </mxCell>
        <mxCell id="hnfzN5Wv6gXfao0GcC86-15" style="edgeStyle=orthogonalEdgeStyle;rounded=0;orthogonalLoop=1;jettySize=auto;html=1;exitX=0.5;exitY=0;exitDx=0;exitDy=0;entryX=0;entryY=0.5;entryDx=0;entryDy=0;" edge="1" parent="WIyWlLk6GJQsqaUBKTNV-1" source="T8p9k_Qt9hQ4uy_2N834-4" target="zkfFHV4jXpPFQw0GAbJ--1">
          <mxGeometry relative="1" as="geometry" />
        </mxCell>
        <mxCell id="T8p9k_Qt9hQ4uy_2N834-4" value="Session" style="swimlane;fontStyle=2;align=center;verticalAlign=top;childLayout=stackLayout;horizontal=1;startSize=26;horizontalStack=0;resizeParent=1;resizeLast=0;collapsible=1;marginBottom=0;rounded=0;shadow=0;strokeWidth=1;" parent="WIyWlLk6GJQsqaUBKTNV-1" vertex="1">
          <mxGeometry x="110" y="330" width="520" height="300" as="geometry">
            <mxRectangle x="230" y="140" width="160" height="26" as="alternateBounds" />
          </mxGeometry>
        </mxCell>
        <mxCell id="T8p9k_Qt9hQ4uy_2N834-12" value="config" style="text;align=left;verticalAlign=top;spacingLeft=4;spacingRight=4;overflow=hidden;rotatable=0;points=[[0,0.5],[1,0.5]];portConstraint=eastwest;" parent="T8p9k_Qt9hQ4uy_2N834-4" vertex="1">
          <mxGeometry y="26" width="520" height="26" as="geometry" />
        </mxCell>
        <mxCell id="T8p9k_Qt9hQ4uy_2N834-13" value="connection" style="text;align=left;verticalAlign=top;spacingLeft=4;spacingRight=4;overflow=hidden;rotatable=0;points=[[0,0.5],[1,0.5]];portConstraint=eastwest;" parent="T8p9k_Qt9hQ4uy_2N834-4" vertex="1">
          <mxGeometry y="52" width="520" height="26" as="geometry" />
        </mxCell>
        <mxCell id="T8p9k_Qt9hQ4uy_2N834-14" value="ipportStrategy" style="text;align=left;verticalAlign=top;spacingLeft=4;spacingRight=4;overflow=hidden;rotatable=0;points=[[0,0.5],[1,0.5]];portConstraint=eastwest;" parent="T8p9k_Qt9hQ4uy_2N834-4" vertex="1">
          <mxGeometry y="78" width="520" height="26" as="geometry" />
        </mxCell>
        <mxCell id="hnfzN5Wv6gXfao0GcC86-0" value="connectiontStrategy" style="text;align=left;verticalAlign=top;spacingLeft=4;spacingRight=4;overflow=hidden;rotatable=0;points=[[0,0.5],[1,0.5]];portConstraint=eastwest;" vertex="1" parent="T8p9k_Qt9hQ4uy_2N834-4">
          <mxGeometry y="104" width="520" height="26" as="geometry" />
        </mxCell>
        <mxCell id="T8p9k_Qt9hQ4uy_2N834-6" value="" style="line;html=1;strokeWidth=1;align=left;verticalAlign=middle;spacingTop=-1;spacingLeft=3;spacingRight=3;rotatable=0;labelPosition=right;points=[];portConstraint=eastwest;" parent="T8p9k_Qt9hQ4uy_2N834-4" vertex="1">
          <mxGeometry y="130" width="520" height="8" as="geometry" />
        </mxCell>
        <mxCell id="T8p9k_Qt9hQ4uy_2N834-7" value="open;" style="text;align=left;verticalAlign=top;spacingLeft=4;spacingRight=4;overflow=hidden;rotatable=0;points=[[0,0.5],[1,0.5]];portConstraint=eastwest;rounded=0;shadow=0;html=0;" parent="T8p9k_Qt9hQ4uy_2N834-4" vertex="1">
          <mxGeometry y="138" width="520" height="26" as="geometry" />
        </mxCell>
        <mxCell id="T8p9k_Qt9hQ4uy_2N834-8" value="sendMessage:(Message*)msg;" style="text;align=left;verticalAlign=top;spacingLeft=4;spacingRight=4;overflow=hidden;rotatable=0;points=[[0,0.5],[1,0.5]];portConstraint=eastwest;rounded=0;shadow=0;html=0;" parent="T8p9k_Qt9hQ4uy_2N834-4" vertex="1">
          <mxGeometry y="164" width="520" height="26" as="geometry" />
        </mxCell>
        <mxCell id="T8p9k_Qt9hQ4uy_2N834-9" value="sendMessageWithCmd:(CMD)cmd;" style="text;align=left;verticalAlign=top;spacingLeft=4;spacingRight=4;overflow=hidden;rotatable=0;points=[[0,0.5],[1,0.5]];portConstraint=eastwest;" parent="T8p9k_Qt9hQ4uy_2N834-4" vertex="1">
          <mxGeometry y="190" width="520" height="26" as="geometry" />
        </mxCell>
        <mxCell id="T8p9k_Qt9hQ4uy_2N834-10" value="close;" style="text;align=left;verticalAlign=top;spacingLeft=4;spacingRight=4;overflow=hidden;rotatable=0;points=[[0,0.5],[1,0.5]];portConstraint=eastwest;" parent="T8p9k_Qt9hQ4uy_2N834-4" vertex="1">
          <mxGeometry y="216" width="520" height="26" as="geometry" />
        </mxCell>
        <mxCell id="T8p9k_Qt9hQ4uy_2N834-11" value="addListener:(id&lt;Listener&gt;)listener;" style="text;align=left;verticalAlign=top;spacingLeft=4;spacingRight=4;overflow=hidden;rotatable=0;points=[[0,0.5],[1,0.5]];portConstraint=eastwest;" parent="T8p9k_Qt9hQ4uy_2N834-4" vertex="1">
          <mxGeometry y="242" width="520" height="26" as="geometry" />
        </mxCell>
        <mxCell id="hnfzN5Wv6gXfao0GcC86-2" value="sessionWithConfiguration:(SessionConfiguration *)configuration endPoint:(EndPoint *)endpoint;" style="text;align=left;verticalAlign=top;spacingLeft=4;spacingRight=4;overflow=hidden;rotatable=0;points=[[0,0.5],[1,0.5]];portConstraint=eastwest;" vertex="1" parent="T8p9k_Qt9hQ4uy_2N834-4">
          <mxGeometry y="268" width="520" height="26" as="geometry" />
        </mxCell>
        <mxCell id="hnfzN5Wv6gXfao0GcC86-5" value="SessionConfiguration" style="swimlane;fontStyle=2;align=center;verticalAlign=top;childLayout=stackLayout;horizontal=1;startSize=26;horizontalStack=0;resizeParent=1;resizeLast=0;collapsible=1;marginBottom=0;rounded=0;shadow=0;strokeWidth=1;" vertex="1" parent="WIyWlLk6GJQsqaUBKTNV-1">
          <mxGeometry x="-450" y="330" width="330" height="190" as="geometry">
            <mxRectangle x="230" y="140" width="160" height="26" as="alternateBounds" />
          </mxGeometry>
        </mxCell>
        <mxCell id="hnfzN5Wv6gXfao0GcC86-6" value="connectTimeout" style="text;align=left;verticalAlign=top;spacingLeft=4;spacingRight=4;overflow=hidden;rotatable=0;points=[[0,0.5],[1,0.5]];portConstraint=eastwest;" vertex="1" parent="hnfzN5Wv6gXfao0GcC86-5">
          <mxGeometry y="26" width="330" height="26" as="geometry" />
        </mxCell>
        <mxCell id="hnfzN5Wv6gXfao0GcC86-8" value="heartBeatTimeInterval" style="text;align=left;verticalAlign=top;spacingLeft=4;spacingRight=4;overflow=hidden;rotatable=0;points=[[0,0.5],[1,0.5]];portConstraint=eastwest;rounded=0;shadow=0;html=0;" vertex="1" parent="hnfzN5Wv6gXfao0GcC86-5">
          <mxGeometry y="52" width="330" height="26" as="geometry" />
        </mxCell>
        <mxCell id="hnfzN5Wv6gXfao0GcC86-9" value="complexConnectCount" style="text;align=left;verticalAlign=top;spacingLeft=4;spacingRight=4;overflow=hidden;rotatable=0;points=[[0,0.5],[1,0.5]];portConstraint=eastwest;rounded=0;shadow=0;html=0;" vertex="1" parent="hnfzN5Wv6gXfao0GcC86-5">
          <mxGeometry y="78" width="330" height="26" as="geometry" />
        </mxCell>
        <mxCell id="hnfzN5Wv6gXfao0GcC86-10" value="securityLevel" style="text;align=left;verticalAlign=top;spacingLeft=4;spacingRight=4;overflow=hidden;rotatable=0;points=[[0,0.5],[1,0.5]];portConstraint=eastwest;" vertex="1" parent="hnfzN5Wv6gXfao0GcC86-5">
          <mxGeometry y="104" width="330" height="26" as="geometry" />
        </mxCell>
        <mxCell id="hnfzN5Wv6gXfao0GcC86-11" value="evaluateTrust" style="text;align=left;verticalAlign=top;spacingLeft=4;spacingRight=4;overflow=hidden;rotatable=0;points=[[0,0.5],[1,0.5]];portConstraint=eastwest;" vertex="1" parent="hnfzN5Wv6gXfao0GcC86-5">
          <mxGeometry y="130" width="330" height="26" as="geometry" />
        </mxCell>
        <mxCell id="hnfzN5Wv6gXfao0GcC86-12" value="reconnectAllSessions;" style="text;align=left;verticalAlign=top;spacingLeft=4;spacingRight=4;overflow=hidden;rotatable=0;points=[[0,0.5],[1,0.5]];portConstraint=eastwest;" vertex="1" parent="hnfzN5Wv6gXfao0GcC86-5">
          <mxGeometry y="156" width="330" height="26" as="geometry" />
        </mxCell>
        <mxCell id="hnfzN5Wv6gXfao0GcC86-7" value="" style="line;html=1;strokeWidth=1;align=left;verticalAlign=middle;spacingTop=-1;spacingLeft=3;spacingRight=3;rotatable=0;labelPosition=right;points=[];portConstraint=eastwest;" vertex="1" parent="hnfzN5Wv6gXfao0GcC86-5">
          <mxGeometry y="182" width="330" height="8" as="geometry" />
        </mxCell>
        <mxCell id="hnfzN5Wv6gXfao0GcC86-16" value="Listener" style="swimlane;fontStyle=2;align=center;verticalAlign=top;childLayout=stackLayout;horizontal=1;startSize=26;horizontalStack=0;resizeParent=1;resizeLast=0;collapsible=1;marginBottom=0;rounded=0;shadow=0;strokeWidth=1;" vertex="1" parent="WIyWlLk6GJQsqaUBKTNV-1">
          <mxGeometry x="790" y="410" width="420" height="190" as="geometry">
            <mxRectangle x="230" y="140" width="160" height="26" as="alternateBounds" />
          </mxGeometry>
        </mxCell>
        <mxCell id="hnfzN5Wv6gXfao0GcC86-17" value="onConnect:(Session *)session;" style="text;align=left;verticalAlign=top;spacingLeft=4;spacingRight=4;overflow=hidden;rotatable=0;points=[[0,0.5],[1,0.5]];portConstraint=eastwest;" vertex="1" parent="hnfzN5Wv6gXfao0GcC86-16">
          <mxGeometry y="26" width="420" height="26" as="geometry" />
        </mxCell>
        <mxCell id="hnfzN5Wv6gXfao0GcC86-18" value="onError:(NSError *) session:(Session *)session;" style="text;align=left;verticalAlign=top;spacingLeft=4;spacingRight=4;overflow=hidden;rotatable=0;points=[[0,0.5],[1,0.5]];portConstraint=eastwest;rounded=0;shadow=0;html=0;" vertex="1" parent="hnfzN5Wv6gXfao0GcC86-16">
          <mxGeometry y="52" width="420" height="26" as="geometry" />
        </mxCell>
        <mxCell id="hnfzN5Wv6gXfao0GcC86-19" value="onDisConnect:(Session *)session;" style="text;align=left;verticalAlign=top;spacingLeft=4;spacingRight=4;overflow=hidden;rotatable=0;points=[[0,0.5],[1,0.5]];portConstraint=eastwest;rounded=0;shadow=0;html=0;" vertex="1" parent="hnfzN5Wv6gXfao0GcC86-16">
          <mxGeometry y="78" width="420" height="26" as="geometry" />
        </mxCell>
        <mxCell id="hnfzN5Wv6gXfao0GcC86-20" value="onPushReceive:(Message *)message session:(Session *)session;" style="text;align=left;verticalAlign=top;spacingLeft=4;spacingRight=4;overflow=hidden;rotatable=0;points=[[0,0.5],[1,0.5]];portConstraint=eastwest;" vertex="1" parent="hnfzN5Wv6gXfao0GcC86-16">
          <mxGeometry y="104" width="420" height="26" as="geometry" />
        </mxCell>
        <mxCell id="hnfzN5Wv6gXfao0GcC86-21" value="onResponse:(Message *)message session:(Session *)session;" style="text;align=left;verticalAlign=top;spacingLeft=4;spacingRight=4;overflow=hidden;rotatable=0;points=[[0,0.5],[1,0.5]];portConstraint=eastwest;" vertex="1" parent="hnfzN5Wv6gXfao0GcC86-16">
          <mxGeometry y="130" width="420" height="26" as="geometry" />
        </mxCell>
        <mxCell id="hnfzN5Wv6gXfao0GcC86-23" value="" style="line;html=1;strokeWidth=1;align=left;verticalAlign=middle;spacingTop=-1;spacingLeft=3;spacingRight=3;rotatable=0;labelPosition=right;points=[];portConstraint=eastwest;" vertex="1" parent="hnfzN5Wv6gXfao0GcC86-16">
          <mxGeometry y="156" width="420" height="8" as="geometry" />
        </mxCell>
        <mxCell id="hnfzN5Wv6gXfao0GcC86-24" style="edgeStyle=orthogonalEdgeStyle;rounded=0;orthogonalLoop=1;jettySize=auto;html=1;exitX=1;exitY=0.5;exitDx=0;exitDy=0;entryX=0;entryY=0.5;entryDx=0;entryDy=0;" edge="1" parent="WIyWlLk6GJQsqaUBKTNV-1" source="T8p9k_Qt9hQ4uy_2N834-11" target="hnfzN5Wv6gXfao0GcC86-16">
          <mxGeometry relative="1" as="geometry" />
        </mxCell>
        <mxCell id="hnfzN5Wv6gXfao0GcC86-25" style="edgeStyle=orthogonalEdgeStyle;rounded=0;orthogonalLoop=1;jettySize=auto;html=1;exitX=1;exitY=0.5;exitDx=0;exitDy=0;entryX=0;entryY=0.5;entryDx=0;entryDy=0;" edge="1" parent="WIyWlLk6GJQsqaUBKTNV-1" source="hnfzN5Wv6gXfao0GcC86-9" target="T8p9k_Qt9hQ4uy_2N834-12">
          <mxGeometry relative="1" as="geometry" />
        </mxCell>
        <mxCell id="hnfzN5Wv6gXfao0GcC86-26" value="Connection" style="swimlane;fontStyle=2;align=center;verticalAlign=top;childLayout=stackLayout;horizontal=1;startSize=26;horizontalStack=0;resizeParent=1;resizeLast=0;collapsible=1;marginBottom=0;rounded=0;shadow=0;strokeWidth=1;" vertex="1" parent="WIyWlLk6GJQsqaUBKTNV-1">
          <mxGeometry x="-650" y="620" width="500" height="190" as="geometry">
            <mxRectangle x="230" y="140" width="160" height="26" as="alternateBounds" />
          </mxGeometry>
        </mxCell>
        <mxCell id="hnfzN5Wv6gXfao0GcC86-27" value="connectWithEndPoint:(EndPoint *)endPoint conParams:(ConnectionParams *)params;" style="text;align=left;verticalAlign=top;spacingLeft=4;spacingRight=4;overflow=hidden;rotatable=0;points=[[0,0.5],[1,0.5]];portConstraint=eastwest;" vertex="1" parent="hnfzN5Wv6gXfao0GcC86-26">
          <mxGeometry y="26" width="500" height="26" as="geometry" />
        </mxCell>
        <mxCell id="hnfzN5Wv6gXfao0GcC86-28" value="heartBeatTimeInterval" style="text;align=left;verticalAlign=top;spacingLeft=4;spacingRight=4;overflow=hidden;rotatable=0;points=[[0,0.5],[1,0.5]];portConstraint=eastwest;rounded=0;shadow=0;html=0;" vertex="1" parent="hnfzN5Wv6gXfao0GcC86-26">
          <mxGeometry y="52" width="500" height="26" as="geometry" />
        </mxCell>
        <mxCell id="hnfzN5Wv6gXfao0GcC86-29" value="complexConnectCount" style="text;align=left;verticalAlign=top;spacingLeft=4;spacingRight=4;overflow=hidden;rotatable=0;points=[[0,0.5],[1,0.5]];portConstraint=eastwest;rounded=0;shadow=0;html=0;" vertex="1" parent="hnfzN5Wv6gXfao0GcC86-26">
          <mxGeometry y="78" width="500" height="26" as="geometry" />
        </mxCell>
        <mxCell id="hnfzN5Wv6gXfao0GcC86-30" value="securityLevel" style="text;align=left;verticalAlign=top;spacingLeft=4;spacingRight=4;overflow=hidden;rotatable=0;points=[[0,0.5],[1,0.5]];portConstraint=eastwest;" vertex="1" parent="hnfzN5Wv6gXfao0GcC86-26">
          <mxGeometry y="104" width="500" height="26" as="geometry" />
        </mxCell>
        <mxCell id="hnfzN5Wv6gXfao0GcC86-31" value="evaluateTrust" style="text;align=left;verticalAlign=top;spacingLeft=4;spacingRight=4;overflow=hidden;rotatable=0;points=[[0,0.5],[1,0.5]];portConstraint=eastwest;" vertex="1" parent="hnfzN5Wv6gXfao0GcC86-26">
          <mxGeometry y="130" width="500" height="26" as="geometry" />
        </mxCell>
        <mxCell id="hnfzN5Wv6gXfao0GcC86-32" value="reconnectAllSessions;" style="text;align=left;verticalAlign=top;spacingLeft=4;spacingRight=4;overflow=hidden;rotatable=0;points=[[0,0.5],[1,0.5]];portConstraint=eastwest;" vertex="1" parent="hnfzN5Wv6gXfao0GcC86-26">
          <mxGeometry y="156" width="500" height="26" as="geometry" />
        </mxCell>
        <mxCell id="hnfzN5Wv6gXfao0GcC86-33" value="" style="line;html=1;strokeWidth=1;align=left;verticalAlign=middle;spacingTop=-1;spacingLeft=3;spacingRight=3;rotatable=0;labelPosition=right;points=[];portConstraint=eastwest;" vertex="1" parent="hnfzN5Wv6gXfao0GcC86-26">
          <mxGeometry y="182" width="500" height="8" as="geometry" />
        </mxCell>
        <mxCell id="hnfzN5Wv6gXfao0GcC86-34" style="edgeStyle=orthogonalEdgeStyle;rounded=0;orthogonalLoop=1;jettySize=auto;html=1;exitX=1;exitY=0.5;exitDx=0;exitDy=0;entryX=0;entryY=0.5;entryDx=0;entryDy=0;" edge="1" parent="WIyWlLk6GJQsqaUBKTNV-1" source="hnfzN5Wv6gXfao0GcC86-29" target="T8p9k_Qt9hQ4uy_2N834-13">
          <mxGeometry relative="1" as="geometry">
            <Array as="points">
              <mxPoint x="10" y="721" />
              <mxPoint x="10" y="395" />
            </Array>
          </mxGeometry>
        </mxCell>
      </root>
    </mxGraphModel>
  </diagram>
</mxfile>
